<svg width="3314" height="634" viewBox="0 0 3314 634" fill="none" xmlns="http://www.w3.org/2000/svg">
<rect width="3314" height="624" fill="white"/>
<path d="M67.623 547V271.123H167.47C203.766 271.123 229.225 278.626 243.846 293.632C258.595 308.638 265.97 332.686 265.97 365.775V451.963C265.97 485.053 258.595 509.165 243.846 524.299C229.096 539.433 203.638 547 167.47 547H67.623ZM135.534 479.281H168.624C178.884 479.281 186.131 477.55 190.363 474.087C194.724 470.624 196.904 463.378 196.904 452.348V365.775C196.904 354.489 194.788 347.243 190.556 344.036C186.451 340.701 179.141 339.034 168.624 339.034H135.534V479.281ZM301.176 547H490.288V479.281H371.396V442.921H456.044V375.202H371.396V339.034H490.288V271.123H301.176V547ZM499.907 465.045L566.856 450.424C567.626 463.506 571.089 472.548 577.245 477.55C583.401 482.552 591.866 485.053 602.64 485.053C612.131 485.053 620.018 482.808 626.303 478.319C631.561 474.472 634.19 470.303 634.19 465.814C634.19 464.917 634.062 464.019 633.806 463.121C632.78 458.119 628.74 453.438 621.686 449.077C614.76 444.716 606.551 441.061 597.061 438.111C587.698 435.033 577.63 430.993 566.856 425.991C556.083 420.989 546.207 415.474 537.229 409.446C528.38 403.418 520.941 394.953 514.913 384.052C508.885 373.15 505.871 360.645 505.871 346.537C505.871 342.818 506.256 338.393 507.025 333.263C507.795 328.132 510.039 321.399 513.759 313.062C517.606 304.598 522.673 296.966 528.957 290.169C535.37 283.243 544.797 277.343 557.237 272.47C569.678 267.468 584.171 264.967 600.716 264.967C620.467 264.967 637.397 267.66 651.505 273.047C665.741 278.434 676.386 285.552 683.44 294.401C690.623 303.123 695.753 311.972 698.831 320.95C702.037 329.8 703.641 339.098 703.641 348.846L637.076 363.467C634.511 342.946 622.391 332.686 600.716 332.686C593.405 332.686 587.506 334.545 583.017 338.265C579.169 341.343 577.245 344.806 577.245 348.653C577.245 349.295 577.309 350 577.438 350.77C578.207 355.515 582.055 360.004 588.98 364.236C596.035 368.34 604.435 372.06 614.183 375.395C623.93 378.729 634.383 383.154 645.541 388.669C656.699 394.184 666.96 400.148 676.322 406.561C685.813 412.973 693.701 421.823 699.985 433.109C706.27 444.396 709.412 457.157 709.412 471.394C709.412 474.856 708.771 479.281 707.488 484.668C706.206 489.926 703.256 496.724 698.639 505.061C694.021 513.269 688.122 520.836 680.939 527.762C673.757 534.559 663.304 540.459 649.581 545.461C635.986 550.463 620.339 552.964 602.64 552.964C586.608 552.964 572.307 550.976 559.738 547C547.169 543.024 537.165 538.022 529.727 531.994C522.416 525.966 516.452 518.912 511.835 510.832C507.218 502.624 504.076 494.864 502.408 487.554C500.741 480.115 499.907 472.612 499.907 465.045ZM737.885 547H805.026V271.123H737.885V547ZM840.232 458.312V359.812C840.232 352.757 840.617 346.024 841.387 339.611C842.156 333.199 844.465 325.054 848.312 315.179C852.16 305.303 857.354 296.902 863.896 289.977C870.437 282.923 880.184 276.895 893.138 271.893C906.22 266.762 921.546 264.197 939.117 264.197C956.688 264.197 971.951 266.762 984.904 271.893C997.986 276.895 1007.8 282.923 1014.34 289.977C1020.88 296.902 1026.14 305.303 1030.11 315.179C1034.09 325.054 1036.46 333.199 1037.23 339.611C1038 346.024 1038.39 352.757 1038.39 359.812L972.977 374.433C972.207 358.914 969.706 347.948 965.474 341.535C961.241 335.122 952.456 331.916 939.117 331.916C925.779 331.916 917.25 335.7 913.53 343.267C909.811 350.705 907.951 363.21 907.951 380.781V437.534C907.951 455.105 909.811 467.674 913.53 475.241C917.25 482.68 925.779 486.399 939.117 486.399C946.171 486.399 951.879 485.438 956.239 483.514C960.6 481.462 963.742 478.383 965.666 474.279C967.718 470.175 969.001 466.327 969.514 462.736C970.027 459.017 970.283 454.271 970.283 448.5H935.654V393.286H1038V458.312C1038 465.366 1037.62 472.163 1036.85 478.704C1036.08 485.117 1033.77 493.261 1029.92 503.137C1026.07 512.884 1020.88 521.285 1014.34 528.339C1007.8 535.265 997.986 541.293 984.904 546.423C971.951 551.553 956.688 554.118 939.117 554.118C921.546 554.118 906.22 551.553 893.138 546.423C880.184 541.293 870.437 535.265 863.896 528.339C857.354 521.285 852.16 512.884 848.312 503.137C844.465 493.261 842.156 485.117 841.387 478.704C840.617 472.163 840.232 465.366 840.232 458.312ZM1072.63 547H1140.54V394.825L1202.68 547H1282.33V271.123H1214.61V422.144L1152.28 271.123H1072.63V547ZM1439.7 547V271.123H1538.2C1572.83 271.123 1597.9 278.754 1613.42 294.017C1628.94 309.279 1636.7 333.199 1636.7 365.775C1636.7 398.352 1628.94 422.272 1613.42 437.534C1598.03 452.668 1572.95 460.235 1538.2 460.235H1507.61V547H1439.7ZM1507.61 392.517H1540.7C1551.22 392.517 1558.53 390.913 1562.63 387.707C1566.86 384.372 1568.98 377.062 1568.98 365.775C1568.98 354.489 1566.86 347.243 1562.63 344.036C1558.53 340.701 1551.22 339.034 1540.7 339.034H1507.61V392.517ZM1659.01 547H1726.73V489.093H1784.25V547H1852.17V366.545C1852.17 355.002 1851.65 345.062 1850.63 336.726C1849.73 328.261 1847.36 319.155 1843.51 309.407C1839.79 299.66 1834.6 291.708 1827.93 285.552C1821.26 279.396 1811.77 274.329 1799.45 270.354C1787.27 266.249 1772.65 264.197 1755.59 264.197C1738.53 264.197 1723.85 266.249 1711.53 270.354C1699.35 274.329 1689.92 279.396 1683.25 285.552C1676.58 291.708 1671.33 299.66 1667.48 309.407C1663.63 319.155 1661.26 328.261 1660.36 336.726C1659.46 345.062 1659.01 355.002 1659.01 366.545V547ZM1726.73 420.989V366.545C1726.73 356.028 1728.53 348.717 1732.12 344.613C1735.71 340.381 1743.53 338.265 1755.59 338.265C1767.65 338.265 1775.41 340.381 1778.87 344.613C1782.46 348.717 1784.25 356.028 1784.25 366.545V420.989H1726.73ZM1865.63 339.034H1944.51V547H2012.23V339.034H2091.11V271.123H1865.63V339.034ZM2106.88 339.034H2185.76V547H2253.48V339.034H2332.35V271.123H2106.88V339.034ZM2355.82 547H2544.94V479.281H2426.04V442.921H2510.69V375.202H2426.04V339.034H2544.94V271.123H2355.82V547ZM2575.14 547V271.123H2673.64C2708.27 271.123 2733.34 278.754 2748.86 294.017C2764.38 309.279 2772.14 333.199 2772.14 365.775C2772.14 385.014 2769.64 400.917 2764.64 413.486C2759.76 426.055 2751.36 436.701 2739.44 445.422L2794.26 547H2718.66L2674.03 460.62H2643.82V547H2575.14ZM2643.82 392.517H2676.14C2686.66 392.517 2693.97 390.913 2698.07 387.707C2702.31 384.372 2704.42 377.062 2704.42 365.775C2704.42 354.489 2702.31 347.178 2698.07 343.844C2694.23 340.766 2687.68 339.291 2678.45 339.419C2677.68 339.419 2676.91 339.419 2676.14 339.419H2643.82V392.517ZM2816.77 547H2884.68V394.825L2946.82 547H3026.47V271.123H2958.75V422.144L2896.42 271.123H2816.77V547ZM3053.21 465.045L3120.16 450.424C3120.93 463.506 3124.39 472.548 3130.55 477.55C3136.71 482.552 3145.17 485.053 3155.94 485.053C3165.44 485.053 3173.32 482.808 3179.61 478.319C3184.87 474.472 3187.5 470.303 3187.5 465.814C3187.5 464.917 3187.37 464.019 3187.11 463.121C3186.08 458.119 3182.04 453.438 3174.99 449.077C3168.06 444.716 3159.86 441.061 3150.37 438.111C3141 435.033 3130.93 430.993 3120.16 425.991C3109.39 420.989 3099.51 415.474 3090.53 409.446C3081.68 403.418 3074.25 394.953 3068.22 384.052C3062.19 373.15 3059.18 360.645 3059.18 346.537C3059.18 342.818 3059.56 338.393 3060.33 333.263C3061.1 328.132 3063.34 321.399 3067.06 313.062C3070.91 304.598 3075.98 296.966 3082.26 290.169C3088.67 283.243 3098.1 277.343 3110.54 272.47C3122.98 267.468 3137.48 264.967 3154.02 264.967C3173.77 264.967 3190.7 267.66 3204.81 273.047C3219.05 278.434 3229.69 285.552 3236.75 294.401C3243.93 303.123 3249.06 311.972 3252.14 320.95C3255.34 329.8 3256.95 339.098 3256.95 348.846L3190.38 363.467C3187.82 342.946 3175.7 332.686 3154.02 332.686C3146.71 332.686 3140.81 334.545 3136.32 338.265C3132.47 341.343 3130.55 344.806 3130.55 348.653C3130.55 349.295 3130.61 350 3130.74 350.77C3131.51 355.515 3135.36 360.004 3142.29 364.236C3149.34 368.34 3157.74 372.06 3167.49 375.395C3177.23 378.729 3187.69 383.154 3198.85 388.669C3210 394.184 3220.26 400.148 3229.63 406.561C3239.12 412.973 3247.01 421.823 3253.29 433.109C3259.57 444.396 3262.72 457.157 3262.72 471.394C3262.72 474.856 3262.08 479.281 3260.79 484.668C3259.51 489.926 3256.56 496.724 3251.94 505.061C3247.33 513.269 3241.43 520.836 3234.24 527.762C3227.06 534.559 3216.61 540.459 3202.89 545.461C3189.29 550.463 3173.64 552.964 3155.94 552.964C3139.91 552.964 3125.61 550.976 3113.04 547C3100.47 543.024 3090.47 538.022 3083.03 531.994C3075.72 525.966 3069.76 518.912 3065.14 510.832C3060.52 502.624 3057.38 494.864 3055.71 487.554C3054.05 480.115 3053.21 472.612 3053.21 465.045Z" fill="black"/>
<path d="M2703.76 37.576C2704.35 38.4113 2704.65 39.0677 2704.65 39.545C2704.65 40.261 2703.93 41.4543 2702.5 43.125C2700.95 44.7957 2699.7 45.631 2698.74 45.631C2698.03 45.631 2697.31 45.273 2696.6 44.557C2696.36 44.3183 2695.76 43.7217 2694.81 42.767C2693.85 41.693 2692.72 40.8577 2691.4 40.261C2690.09 39.545 2688.66 39.1273 2687.11 39.008C2682.93 39.008 2679.71 41.2157 2677.44 45.631C2675.29 50.0463 2673.38 57.087 2671.71 66.753L2670.64 74.987H2682.1C2684.24 74.987 2685.68 75.2257 2686.39 75.703C2687.23 76.061 2687.65 76.777 2687.65 77.851C2687.65 78.209 2687.53 79.104 2687.29 80.536C2686.81 82.2067 2686.09 83.3403 2685.14 83.937C2684.18 84.4143 2682.39 84.653 2679.77 84.653H2669.39L2661.51 149.63C2661.27 152.017 2660.85 153.568 2660.26 154.284C2659.78 154.881 2658.77 155.358 2657.22 155.716C2654.35 156.193 2652.86 156.432 2652.74 156.432C2651.67 156.432 2651.01 156.134 2650.77 155.537C2650.53 155.06 2650.53 154.045 2650.77 152.494C2651.61 145.573 2652.8 135.429 2654.35 122.064C2656.02 108.579 2657.63 96.109 2659.18 84.653H2652.2C2650.06 84.653 2648.56 84.474 2647.73 84.116C2646.89 83.758 2646.48 83.1017 2646.48 82.147C2646.48 81.431 2646.65 80.6553 2647.01 79.82C2647.61 77.7913 2648.32 76.4787 2649.16 75.882C2650.11 75.2853 2651.9 74.987 2654.53 74.987H2660.44L2661.69 66.037C2663.12 57.6837 2664.79 50.8817 2666.7 45.631C2668.73 40.3803 2671.48 36.323 2674.94 33.459C2678.4 30.4757 2682.93 28.984 2688.54 28.984C2691.76 28.984 2694.69 29.879 2697.31 31.669C2699.94 33.459 2702.08 35.428 2703.76 37.576ZM2721.57 74.271C2727.77 74.3903 2732.67 77.135 2736.25 82.505C2739.95 87.7557 2741.85 94.1997 2741.97 101.837C2741.97 111.98 2740.72 121.229 2738.22 129.582C2735.71 137.816 2731.95 144.439 2726.94 149.451C2721.93 154.344 2715.78 156.79 2708.5 156.79C2702.3 156.671 2697.34 153.986 2693.64 148.735C2690.06 143.365 2688.21 136.861 2688.1 129.224C2688.1 119.081 2689.35 109.892 2691.85 101.658C2694.36 93.3047 2698.12 86.6817 2703.13 81.789C2708.14 76.777 2714.29 74.271 2721.57 74.271ZM2709.4 146.587C2714.77 146.587 2719.06 144.141 2722.28 139.248C2725.63 134.355 2727.95 128.687 2729.27 122.243C2730.7 115.68 2731.41 109.713 2731.41 104.343C2731.41 98.3763 2730.52 93.6627 2728.73 90.202C2726.94 86.622 2724.25 84.832 2720.67 84.832C2715.3 84.832 2710.95 87.2783 2707.61 92.171C2704.38 96.9443 2702.06 102.553 2700.63 108.997C2699.31 115.441 2698.66 121.348 2698.66 126.718C2698.66 132.685 2699.55 137.518 2701.34 141.217C2703.13 144.797 2705.82 146.587 2709.4 146.587ZM2763.52 149.63C2763.16 152.017 2762.69 153.568 2762.09 154.284C2761.61 154.881 2760.6 155.358 2759.05 155.716C2756.66 156.193 2755.23 156.432 2754.75 156.432C2753.8 156.432 2753.14 156.134 2752.78 155.537C2752.54 155.06 2752.54 154.105 2752.78 152.673C2755.05 135.847 2756.84 121.587 2758.15 109.892C2759.46 98.1973 2760.12 88.412 2760.12 80.536C2760.12 78.1493 2760.36 76.6577 2760.84 76.061C2761.43 75.345 2762.63 74.808 2764.42 74.45C2767.28 73.9727 2768.83 73.734 2769.07 73.734C2770.14 73.734 2770.86 74.0323 2771.22 74.629C2771.58 75.1063 2771.7 76.1207 2771.58 77.672L2770.86 87.696C2777.07 78.6267 2784.29 74.092 2792.52 74.092C2794.07 74.092 2795.14 74.3307 2795.74 74.808C2796.34 75.166 2796.64 76.061 2796.64 77.493C2796.64 78.567 2796.58 79.462 2796.46 80.178C2796.22 82.326 2795.74 83.758 2795.03 84.474C2794.43 85.0707 2793.18 85.4883 2791.27 85.727C2785.06 86.443 2779.87 89.307 2775.69 94.319C2771.52 99.2117 2768.77 107.028 2767.46 117.768L2763.52 149.63ZM2836.17 152.494C2836.29 151.659 2837.12 145.036 2838.67 132.625C2840.34 120.214 2842.19 105.298 2844.22 87.875C2846.37 68.543 2848.58 50.7623 2850.85 34.533C2851.08 32.2657 2851.44 30.774 2851.92 30.058C2852.52 29.342 2853.53 28.805 2854.96 28.447C2856.75 27.9697 2858.18 27.731 2859.26 27.731C2860.33 27.731 2860.99 28.0293 2861.23 28.626C2861.59 29.1033 2861.7 30.058 2861.59 31.49C2857.65 60.2493 2855.14 79.0443 2854.07 87.875C2860.15 78.8057 2867.55 74.271 2876.26 74.271C2880.92 74.271 2884.8 75.882 2887.9 79.104C2891.12 82.326 2892.73 87.3977 2892.73 94.319C2892.73 99.8083 2892.43 105.238 2891.84 110.608C2891.36 115.978 2890.52 123.615 2889.33 133.52L2887.36 149.63C2887.12 151.897 2886.65 153.389 2885.93 154.105C2885.33 154.702 2884.26 155.239 2882.71 155.716C2880.32 156.193 2878.89 156.432 2878.41 156.432C2877.34 156.432 2876.62 156.134 2876.26 155.537C2875.91 154.94 2875.85 153.926 2876.08 152.494L2876.62 148.198C2880.08 122.422 2881.81 105.656 2881.81 97.899C2881.81 93.245 2881.16 89.9037 2879.84 87.875C2878.65 85.727 2876.62 84.653 2873.76 84.653C2870.65 84.653 2867.49 86.264 2864.27 89.486C2861.05 92.5887 2858.24 96.7057 2855.86 101.837C2853.47 106.968 2851.92 112.279 2851.2 117.768L2847.27 149.63C2847.03 151.897 2846.55 153.389 2845.83 154.105C2845.24 154.702 2844.16 155.239 2842.61 155.716C2840.22 156.193 2838.85 156.432 2838.49 156.432C2837.42 156.432 2836.7 156.134 2836.35 155.537C2835.99 154.94 2835.93 153.926 2836.17 152.494ZM2947.08 141.396C2944.69 146.169 2941.65 149.928 2937.95 152.673C2934.25 155.418 2930.19 156.79 2925.78 156.79C2920.41 156.79 2916.05 155.119 2912.71 151.778C2909.37 148.317 2907.7 143.246 2907.7 136.563C2907.7 131.074 2907.93 125.644 2908.41 120.274C2909.01 114.904 2909.9 107.267 2911.1 97.362L2913.07 81.252C2913.3 78.9847 2913.72 77.5527 2914.32 76.956C2915.04 76.24 2916.17 75.6433 2917.72 75.166C2920.11 74.6887 2921.42 74.45 2921.66 74.45C2922.73 74.45 2923.45 74.7483 2923.81 75.345C2924.16 75.9417 2924.22 76.956 2923.99 78.388L2923.45 82.505C2923.21 84.295 2922.25 91.813 2920.58 105.059C2919.03 118.186 2918.32 127.732 2918.44 133.699C2918.44 142.052 2921.42 146.229 2927.39 146.229C2933.11 146.229 2937.89 143.305 2941.71 137.458C2945.52 131.491 2948.03 123.377 2949.22 113.114L2953.16 81.252C2953.28 78.9847 2953.64 77.5527 2954.24 76.956C2954.95 76.24 2956.09 75.6433 2957.64 75.166C2960.02 74.6887 2961.46 74.45 2961.93 74.45C2962.89 74.45 2963.48 74.7483 2963.72 75.345C2964.08 75.8223 2964.14 76.777 2963.9 78.209C2963.9 79.5217 2963.42 83.8773 2962.47 91.276C2960.8 103.687 2959.43 115.501 2958.35 126.718C2957.88 132.565 2957.4 141.217 2956.92 152.673C2956.8 154.344 2955.37 155.418 2952.63 155.895C2951.19 156.134 2950.3 156.253 2949.94 156.253C2948.51 156.253 2947.55 155.776 2947.08 154.821C2946.6 153.866 2946.42 152.136 2946.54 149.63C2946.54 147.482 2946.72 144.737 2947.08 141.396ZM3026.89 118.126C3026.3 122.899 3025.82 127.255 3025.46 131.193C3024.39 140.024 3023.61 146.229 3023.13 149.809C3022.9 151.957 3022.42 153.449 3021.7 154.284C3020.99 155 3019.91 155.537 3018.48 155.895C3016.69 156.253 3015.38 156.432 3014.54 156.432C3013.47 156.432 3012.75 156.134 3012.39 155.537C3012.04 154.94 3011.98 153.926 3012.22 152.494C3013.29 145.215 3014.54 135.668 3015.97 123.854C3017.41 112.04 3018.12 103.508 3018.12 98.257C3018.12 93.603 3017.47 90.1423 3016.15 87.875C3014.84 85.6077 3012.75 84.474 3009.89 84.474C3007.14 84.474 3004.22 86.085 3001.12 89.307C2998.13 92.529 2995.45 96.7653 2993.06 102.016C2990.8 107.147 2989.3 112.398 2988.59 117.768L2984.65 149.63C2984.29 152.017 2983.81 153.568 2983.22 154.284C2982.74 154.881 2981.73 155.358 2980.17 155.716C2977.79 156.193 2976.36 156.432 2975.88 156.432C2974.92 156.432 2974.27 156.134 2973.91 155.537C2973.67 155.06 2973.67 154.105 2973.91 152.673C2976.18 135.847 2977.97 121.587 2979.28 109.892C2980.59 98.1973 2981.25 88.412 2981.25 80.536C2981.25 78.1493 2981.49 76.6577 2981.96 76.061C2982.56 75.345 2983.75 74.808 2985.54 74.45C2988.41 73.9727 2989.96 73.734 2990.2 73.734C2991.27 73.734 2991.99 74.0323 2992.35 74.629C2992.7 75.1063 2992.82 76.1207 2992.7 77.672L2991.99 87.696C2994.97 83.4 2998.25 80.1183 3001.83 77.851C3005.41 75.4643 3008.99 74.271 3012.57 74.271C3020.45 74.271 3025.52 78.9847 3027.79 88.412C3030.53 83.8773 3033.76 80.4167 3037.45 78.03C3041.27 75.524 3045.27 74.271 3049.45 74.271C3054.1 74.271 3057.98 75.882 3061.08 79.104C3064.3 82.326 3065.92 87.3977 3065.92 94.319C3065.92 99.8083 3065.62 105.238 3065.02 110.608C3064.54 115.978 3063.71 123.615 3062.51 133.52L3060.55 149.63C3060.31 151.897 3059.83 153.389 3059.11 154.105C3058.52 154.702 3057.44 155.239 3055.89 155.716C3053.5 156.193 3052.07 156.432 3051.6 156.432C3050.52 156.432 3049.81 156.134 3049.45 155.537C3049.09 154.94 3049.03 153.926 3049.27 152.494L3049.81 148.198C3053.27 122.422 3055 105.656 3055 97.899C3055 93.245 3054.34 89.9037 3053.03 87.875C3051.83 85.727 3049.81 84.653 3046.94 84.653C3042.29 84.653 3038.05 88.1137 3034.23 95.035C3030.53 101.837 3028.09 109.534 3026.89 118.126ZM3137.85 140.143C3138.92 140.143 3140.06 141.038 3141.25 142.828C3142.44 144.499 3143.04 146.05 3143.04 147.482C3143.04 148.437 3142.15 149.63 3140.36 151.062C3138.68 152.375 3136.6 153.568 3134.09 154.642C3131.7 155.716 3129.38 156.253 3127.11 156.253C3124.13 156.253 3121.92 154.94 3120.49 152.315C3119.17 149.57 3118.52 146.468 3118.52 143.007C3115.65 147.542 3112.55 150.943 3109.21 153.21C3105.99 155.477 3102.17 156.611 3097.75 156.611C3092.03 156.492 3087.43 153.687 3083.97 148.198C3080.63 142.709 3078.96 135.131 3078.96 125.465C3079.08 116.515 3080.39 108.162 3082.9 100.405C3085.52 92.529 3089.22 86.264 3093.99 81.61C3098.89 76.8367 3104.73 74.45 3111.54 74.45C3116.19 74.45 3120.84 76.3593 3125.5 80.178V79.641C3125.74 77.2543 3126.1 75.7627 3126.57 75.166C3127.17 74.45 3128.24 73.913 3129.79 73.555C3132.66 73.0777 3134.21 72.839 3134.45 72.839C3135.64 72.839 3136.42 73.1373 3136.78 73.734C3137.13 74.3307 3137.19 75.345 3136.95 76.777C3131.11 115.56 3128.18 139.248 3128.18 147.84C3129.97 146.766 3132.12 144.976 3134.63 142.47C3136.18 140.919 3137.25 140.143 3137.85 140.143ZM3121.38 112.04C3123.05 100.584 3124.01 93.245 3124.25 90.023C3122.34 88.233 3120.43 86.9203 3118.52 86.085C3116.73 85.1303 3114.64 84.653 3112.25 84.653C3106.76 84.653 3102.35 86.98 3099.01 91.634C3095.67 96.288 3093.28 101.718 3091.85 107.923C3090.53 114.128 3089.82 119.856 3089.7 125.107C3089.7 139.069 3093.22 146.05 3100.26 146.05C3105.27 146.05 3109.69 142.947 3113.51 136.742C3117.44 130.417 3120.07 122.183 3121.38 112.04ZM3151.34 152.673C3153.6 135.847 3155.39 121.587 3156.71 109.892C3158.02 98.1973 3158.68 88.412 3158.68 80.536C3158.68 78.1493 3158.91 76.6577 3159.39 76.061C3159.99 75.345 3161.18 74.808 3162.97 74.45C3165.84 73.9727 3167.39 73.734 3167.63 73.734C3168.7 73.734 3169.42 74.0323 3169.77 74.629C3170.13 75.1063 3170.25 76.1207 3170.13 77.672L3169.42 87.696C3175.62 78.746 3182.84 74.271 3191.07 74.271C3195.73 74.271 3199.61 75.882 3202.71 79.104C3205.93 82.326 3207.54 87.3977 3207.54 94.319C3207.54 99.8083 3207.24 105.238 3206.65 110.608C3206.17 115.978 3205.33 123.615 3204.14 133.52L3202.17 149.63C3201.93 151.897 3201.46 153.389 3200.74 154.105C3200.14 154.702 3199.07 155.239 3197.52 155.716C3195.13 156.193 3193.7 156.432 3193.22 156.432C3192.15 156.432 3191.43 156.134 3191.07 155.537C3190.72 154.94 3190.66 153.926 3190.9 152.494L3191.43 148.198C3194.89 122.422 3196.62 105.656 3196.62 97.899C3196.62 93.245 3195.97 89.9037 3194.65 87.875C3193.46 85.727 3191.43 84.653 3188.57 84.653C3185.47 84.653 3182.3 86.264 3179.08 89.486C3175.86 92.5887 3173.05 96.7057 3170.67 101.837C3168.28 106.968 3166.73 112.279 3166.01 117.768L3162.08 149.63C3161.72 152.017 3161.24 153.568 3160.64 154.284C3160.17 154.881 3159.15 155.358 3157.6 155.716C3155.21 156.193 3153.78 156.432 3153.31 156.432C3152.35 156.432 3151.69 156.134 3151.34 155.537C3151.1 155.06 3151.1 154.105 3151.34 152.673ZM3257.07 89.307C3254.32 85.6077 3250.68 83.758 3246.15 83.758C3243.16 83.758 3240.66 84.5337 3238.63 86.085C3236.72 87.517 3235.77 89.844 3235.77 93.066C3235.77 95.93 3236.66 98.5553 3238.45 100.942C3240.36 103.209 3243.58 106.014 3248.12 109.355C3254.08 113.89 3258.44 117.887 3261.18 121.348C3263.93 124.809 3265.3 129.045 3265.3 134.057C3265.3 140.859 3262.97 146.289 3258.32 150.346C3253.67 154.403 3247.94 156.432 3241.14 156.432C3236.24 156.432 3231.71 155.119 3227.53 152.494C3223.35 149.869 3219.89 146.408 3217.15 142.112C3216.79 141.396 3216.61 140.74 3216.61 140.143C3216.61 138.83 3217.75 137.458 3220.01 136.026C3221.45 134.952 3222.58 134.415 3223.41 134.415C3224.25 134.415 3225.09 135.071 3225.92 136.384C3227.83 139.248 3230.1 141.575 3232.72 143.365C3235.47 145.155 3238.39 146.05 3241.49 146.05C3245.43 146.05 3248.59 144.916 3250.98 142.649C3253.49 140.382 3254.74 137.637 3254.74 134.415C3254.74 131.312 3253.67 128.627 3251.52 126.36C3249.49 123.973 3246.45 121.229 3242.39 118.126L3238.81 115.262C3234.27 111.682 3230.87 108.281 3228.61 105.059C3226.34 101.718 3225.2 97.6603 3225.2 92.887C3225.2 87.0397 3227.23 82.3857 3231.29 78.925C3235.35 75.4643 3240.42 73.734 3246.51 73.734C3255.93 73.734 3262.68 77.493 3266.73 85.011C3267.09 85.727 3267.27 86.3237 3267.27 86.801C3267.27 87.517 3266.97 88.1137 3266.37 88.591C3265.78 89.0683 3264.7 89.7247 3263.15 90.56C3261.72 91.1567 3260.71 91.455 3260.11 91.455C3259.04 91.455 3258.02 90.739 3257.07 89.307Z" fill="#FF0000"/>
</svg>
