<svg id="Layer_5" enable-background="new 0 0 64 64" height="512" viewBox="0 0 64 64" width="512" xmlns="http://www.w3.org/2000/svg"><g><g><g><path d="m2 56v-32h31.36c.13.28.27.56.42.83l-1.22 2.36 4.25 4.24 2.36-1.21c.95.52 1.96.94 3.02 1.24l.81 2.54h3v16c-3.31 0-6 2.69-6 6 0 .7.12 1.37.34 2h-36.34c-1.1 0-2-.9-2-2z" fill="#e6e9ed"/></g><g><path d="m33.36 24h-31.36v-10c0-1.1.9-2 2-2h29.36c-.33.7-.61 1.43-.82 2.19l-2.54.81v6l2.54.81c.21.76.49 1.49.82 2.19z" fill="#5cd6b3"/></g><g><path d="m17 20h-10c-.552 0-1-.448-1-1v-2c0-.552.448-1 1-1h10c.552 0 1 .448 1 1v2c0 .552-.448 1-1 1z" fill="#e6e9ed"/></g><g><path d="m46 50c3.31 0 6 2.69 6 6s-2.69 6-6 6c-2.61 0-4.84-1.67-5.66-4-.22-.63-.34-1.3-.34-2 0-3.31 2.69-6 6-6z" fill="#ff826e"/></g><g><circle cx="46" cy="56" fill="#fc6e51" r="2"/></g><g><circle cx="58" cy="52" fill="#ff826e" r="2"/></g><g><circle cx="34" cy="52" fill="#ff826e" r="2"/></g><g><path d="m62 15v6l-2.54.81c-.3 1.06-.72 2.07-1.24 3.02l1.22 2.36-4.25 4.24-2.36-1.21c-.95.52-1.96.94-3.02 1.24l-.81 2.54h-3-3l-.81-2.54c-1.06-.3-2.07-.72-3.02-1.24l-2.36 1.21-4.25-4.24 1.22-2.36c-.15-.27-.29-.55-.42-.83-.33-.7-.61-1.43-.82-2.19l-2.54-.81v-6l2.54-.81c.21-.76.49-1.49.82-2.19.13-.28.27-.56.42-.83l-1.22-2.36 4.25-4.25 2.36 1.22c.95-.52 1.96-.94 3.02-1.24l.81-2.54h6l.81 2.54c1.06.3 2.07.72 3.02 1.24l2.36-1.22 4.25 4.25-1.22 2.36c.52.95.94 1.96 1.24 3.02z" fill="#fcd770"/></g><g><circle cx="46" cy="18" fill="#ffeaa7" r="10"/></g></g><g><path d="m46 7c-6.065 0-11 4.935-11 11s4.935 11 11 11 11-4.935 11-11-4.935-11-11-11zm0 20c-4.962 0-9-4.038-9-9s4.038-9 9-9 9 4.038 9 9-4.038 9-9 9z"/><path d="m60.266 13.394c-.248-.772-.556-1.519-.919-2.229l1.312-2.549-5.274-5.274-2.549 1.312c-.71-.363-1.457-.671-2.229-.919l-.878-2.735h-7.459l-.876 2.734c-.772.248-1.519.556-2.229.919l-2.549-1.312-5.274 5.274 1.226 2.385h-28.568c-1.654 0-3 1.346-3 3v42c0 1.654 1.346 3 3 3h35.685c1.126 2.361 3.53 4 6.315 4 3.86 0 7-3.14 7-7 0-3.519-2.613-6.432-6-6.92v-14.08h2.729l.876-2.734c.772-.248 1.519-.556 2.229-.919l2.549 1.312 5.274-5.274-1.312-2.548c.363-.709.67-1.456.919-2.229l2.736-.879v-7.459zm-56.266-.394h27.879c-.047.132-.101.26-.144.394l-2.735.877v7.459l2.734.876c.043.134.098.262.144.394h-28.878v-9c0-.551.449-1 1-1zm47 43c0 2.757-2.243 5-5 5s-5-2.243-5-5 2.243-5 5-5 5 2.243 5 5zm-6-6.92c-3.387.488-6 3.401-6 6.92 0 .34.033.672.08 1h-35.08c-.551 0-1-.449-1-1v-31h29.569l-1.227 2.384 5.274 5.274 2.549-1.312c.71.363 1.457.671 2.229.919l.877 2.735h2.729zm16-28.809-2.356.755-.146.517c-.279.988-.667 1.928-1.153 2.795l-.263.469 1.13 2.195-3.211 3.211-2.195-1.129-.468.262c-.869.486-1.81.875-2.796 1.153l-.517.146-.754 2.355h-4.541l-.755-2.356-.517-.146c-.986-.279-1.927-.667-2.796-1.153l-.468-.262-2.195 1.129-3.211-3.211 1.13-2.195-.263-.469c-.486-.867-.874-1.808-1.153-2.795l-.146-.517-2.356-.754v-4.541l2.356-.755.146-.517c.279-.986.667-1.927 1.153-2.796l.262-.468-1.129-2.195 3.211-3.211 2.195 1.129.468-.262c.869-.486 1.81-.875 2.796-1.153l.517-.146.754-2.356h4.541l.755 2.356.517.146c.986.279 1.927.667 2.796 1.153l.468.262 2.195-1.129 3.211 3.211-1.129 2.195.262.468c.486.869.875 1.81 1.153 2.796l.146.517 2.356.754z"/><path d="m48.2 14.6 2.55 3.4-2.55 3.4 1.6 1.2 3.45-4.6-3.45-4.6z"/><path d="m42.2 13.4-3.45 4.6 3.45 4.6 1.6-1.2-2.55-3.4 2.55-3.4z"/><path d="m38.929 17h14.142v2h-14.142z" transform="matrix(.142 -.99 .99 .142 21.667 60.987)"/><path d="m7 21h10c1.103 0 2-.897 2-2v-2c0-1.103-.897-2-2-2h-10c-1.103 0-2 .897-2 2v2c0 1.103.897 2 2 2zm4-2v-2h2v2zm6.001 0h-2.001v-2h2zm-10.001-2h2v2h-2z"/><path d="m43 56c0 1.654 1.346 3 3 3s3-1.346 3-3-1.346-3-3-3-3 1.346-3 3zm4 0c0 .551-.449 1-1 1s-1-.449-1-1 .449-1 1-1 1 .449 1 1z"/><path d="m59 49.184v-3.598l-4-4v-7.586h-2v8.414l4 4v2.77c-1.161.414-2 1.514-2 2.816 0 1.654 1.346 3 3 3s3-1.346 3-3c0-1.302-.839-2.402-2-2.816zm-1 3.816c-.551 0-1-.449-1-1s.449-1 1-1 1 .449 1 1-.449 1-1 1z"/><path d="m37 41.586-4 4v3.598c-1.161.414-2 1.514-2 2.816 0 1.654 1.346 3 3 3s3-1.346 3-3c0-1.302-.839-2.402-2-2.816v-2.77l4-4v-8.414h-2zm-3 11.414c-.551 0-1-.449-1-1s.449-1 1-1 1 .449 1 1-.449 1-1 1z"/><path d="m7 34c0 1.654 1.346 3 3 3h1v-2h-1c-.551 0-1-.449-1-1 0-.771-.301-1.468-.78-2 .479-.532.78-1.229.78-2 0-.551.449-1 1-1h1v-2h-1c-1.654 0-3 1.346-3 3 0 .551-.449 1-1 1h-1v2h1c.551 0 1 .449 1 1z"/><path d="m13 27h12v2h-12z"/><path d="m13 31h12v2h-12z"/><path d="m23 35h2v2h-2z"/><path d="m13 35h8v2h-8z"/><path d="m27 46c0-1.654-1.346-3-3-3h-1v2h1c.551 0 1 .449 1 1 0 .771.301 1.468.78 2-.48.532-.78 1.229-.78 2 0 .551-.449 1-1 1h-1v2h1c1.654 0 3-1.346 3-3 0-.551.449-1 1-1h1v-2h-1c-.551 0-1-.449-1-1z"/><path d="m9 51h12v2h-12z"/><path d="m13 47h8v2h-8z"/><path d="m9 47h2v2h-2z"/><path d="m9 43h12v2h-12z"/><path d="m5 39h20v2h-20z"/></g></g></svg>